<svg width="16" height="16" viewBox="0 0 16 16" fill="none" xmlns="http://www.w3.org/2000/svg">
<g clip-path="url(#clip0_9_135)">
<path d="M4.00001 14.6667V2.66666C4.00001 2.31304 4.14049 1.9739 4.39053 1.72385C4.64058 1.4738 4.97972 1.33333 5.33334 1.33333H10.6667C11.0203 1.33333 11.3594 1.4738 11.6095 1.72385C11.8595 1.9739 12 2.31304 12 2.66666V14.6667M4.00001 14.6667H12M4.00001 14.6667H2.66668C2.31305 14.6667 1.97392 14.5262 1.72387 14.2761C1.47382 14.0261 1.33334 13.6869 1.33334 13.3333V9.33333C1.33334 8.97971 1.47382 8.64057 1.72387 8.39052C1.97392 8.14047 2.31305 7.99999 2.66668 7.99999H4.00001M12 14.6667H13.3333C13.687 14.6667 14.0261 14.5262 14.2762 14.2761C14.5262 14.0261 14.6667 13.6869 14.6667 13.3333V7.33333C14.6667 6.97971 14.5262 6.64057 14.2762 6.39052C14.0261 6.14047 13.687 5.99999 13.3333 5.99999H12M6.66668 3.99999H9.33334M6.66668 6.66666H9.33334M6.66668 9.33333H9.33334M6.66668 12H9.33334" stroke="white" stroke-width="1.33333" stroke-linecap="round" stroke-linejoin="round"/>
</g>
<defs>
<clipPath id="clip0_9_135">
<rect width="16" height="16" fill="white"/>
</clipPath>
</defs>
</svg>
