<svg width="32" height="32" viewBox="0 0 32 32" fill="none" xmlns="http://www.w3.org/2000/svg">
<path d="M27.9999 16C28.7359 16 29.3399 15.4013 29.2666 14.6693C28.9592 11.6082 27.6027 8.74756 25.427 6.57238C23.2514 4.39721 20.3904 3.04133 17.3293 2.73462C16.5959 2.66129 15.9986 3.26529 15.9986 4.00129V14.668C15.9986 15.0216 16.1391 15.3607 16.3891 15.6108C16.6392 15.8608 16.9783 16.0013 17.3319 16.0013L27.9999 16Z" stroke="#B7B4B4" stroke-width="2.66667" stroke-linecap="round" stroke-linejoin="round"/>
<path d="M28.2799 21.1866C27.4317 23.1926 26.105 24.9603 24.4158 26.3351C22.7266 27.7098 20.7263 28.6499 18.5899 29.073C16.4534 29.4962 14.2458 29.3895 12.1601 28.7624C10.0744 28.1352 8.17411 27.0067 6.62531 25.4755C5.0765 23.9443 3.92637 22.057 3.27546 19.9786C2.62456 17.9002 2.4927 15.694 2.89141 13.5528C3.29013 11.4117 4.20728 9.40082 5.56268 7.69602C6.91808 5.99122 8.67046 4.64441 10.6666 3.77332" stroke="#B7B4B4" stroke-width="2.66667" stroke-linecap="round" stroke-linejoin="round"/>
</svg>
